<?xml version="1.0" encoding="UTF-8"?>
<svg version="1.1" viewBox="0 0 1600 1600" width="400" height="400" xmlns="http://www.w3.org/2000/svg">
<path transform="translate(199,181)" d="m0 0 9 1 9 7 13 12 8 8 8 7 13 12 11 9 7 7 11 9 10 9 11 9 14 12 17 14 11 9 16 13 13 10 18 14 16 12 19 14 16 12 19 13 17 12 51 34 25 16 26 16 21 13 15 9 26 15 23 13 22 12 27 15 19 10 14 8 5 2-1 5-9 30-12 35-11 29-16 40-15 34-14 29-22 44-12 22-7 12-6 11-9 16-17 28-11 18-14 22-16 24-13 19-28 40-11 14-14 19-10 12-10 13-13 16-12 14-11 14-10 11-7 9-12 12-7 8-8 8-9 11-8 8-7 8-12 12h-2l-2 4h-2l-2 4-8 8h-2l-2 4-7 7-8 7-14 13-8 7-14 13-11 9-15 13-22 18-7 6-11 8-13 10-16 12-17 12-20 13-10 6h-5l-3-4 2-10 19-43 11-27 12-30 15-41 14-43 12-39 11-41 3-12 6-26 6-27 8-41 7-42 2-9 2-20 3-22 3-25 3-39 2-27 1-34v-110l-2-46-3-33-2-23-7-56-2-12-10-59-9-45-7-30-4-16-11-40-9-30-9-28-11-33-9-23-2-11 4-8z" fill="#E01012"/>
<path transform="translate(844,611)" d="m0 0 9 3 35 16 31 13 32 13 42 16 27 10 47 16 43 14 57 17 37 10 17 5 14 4 10 2 23 6 17 4 15 3 21 5 55 11 2 1 14 2 11 2 11 1 8 3 18 2 11 4 3 2 2 11-1 7-7 4-21 5-16 3-43 9-16 4-17 4-5 1-11 3-18 4-9 3-41 11-42 12-5 2-8 2-27 8-25 8-41 14-10 3-20 7-28 10-53 20-35 14-37 15-25 11-41 18-26 12-24 11-16 8-23 11-19 10-26 13-19 10-28 15-10 6-12 6-24 14-20 11-15 9-19 11-11 7-13 8-24 15-33 21-30 20-19 13-11 7h-9l-2-2-1-6 7-8 50-50 7-8 7-7 7-8 11-12 7-8 11-12 8-10 9-10 9-11 13-16 10-13 11-13 12-16 14-18 14-19 24-34 8-12 14-20 22-34 8-13 10-16 8-13 14-24 13-23 9-16 12-22 14-27 8-16 15-31 16-36 11-26 10-25z" fill="#7D063F"/>
</svg>
